<svg width="42" height="42" viewBox="0 0 42 42" fill="none" xmlns="http://www.w3.org/2000/svg">
<path d="M20.9999 22.4782C25.0821 22.4782 28.3913 19.169 28.3913 15.0869C28.3913 11.0048 25.0821 7.69559 20.9999 7.69559C16.9178 7.69559 13.6086 11.0048 13.6086 15.0869C13.6086 19.169 16.9178 22.4782 20.9999 22.4782Z" stroke="white" stroke-miterlimit="10"/>
<path d="M35.9565 34.2174C34.0434 27.5652 28.0434 22.7391 20.9565 22.7391C13.8695 22.7391 7.913 27.5652 5.95648 34.2174" stroke="white" stroke-miterlimit="10"/>
<path d="M21 41C32.0457 41 41 32.0457 41 21C41 9.9543 32.0457 1 21 1C9.9543 1 1 9.9543 1 21C1 32.0457 9.9543 41 21 41Z" stroke="white" stroke-miterlimit="10"/>
</svg>
