<svg id="Layer_1" data-name="Layer 1" xmlns="http://www.w3.org/2000/svg" viewBox="0 0 122.4 44.88"><title>boost-labs(white)</title><path d="M112.43,59.69S131.51,71.77,146,48.35l-5.23-6.46S137,64.91,112.43,59.69Z" transform="translate(-23.61 -22.47)" style="fill:#fff"/><path d="M113.53,58.38S136,60.21,138,32.73l-7.63-3.29S137.75,51.57,113.53,58.38Z" transform="translate(-23.61 -22.47)" style="fill:#fff"/><path d="M114.75,56.71s20.62-9.21,9.14-34.24l-8.27.78S132.72,39.1,114.75,56.71Z" transform="translate(-23.61 -22.47)" style="fill:#fff"/><path d="M39.08,37.46a6.62,6.62,0,0,1,2.5.42,2,2,0,0,1,1.11,2.21l-.82,3.72a3.23,3.23,0,0,1-1.2,1.48,1.34,1.34,0,0,1,.58,1.46l-.8,3.81a3.23,3.23,0,0,1-2.94,2.08H23.61l3.23-15.19ZM31,46.36l-.88,4.29H33c1.11,0,1.33-.48,1.53-1.26l.4-2a.86.86,0,0,0-.82-1.08Zm1.44-6.74-.94,4.47,2.61,0a1.72,1.72,0,0,0,1.74-1.33l.46-2.11c.13-.66-.19-1-1.77-1Z" transform="translate(-23.61 -22.47)" style="fill:#fff"/><path d="M47.51,37.57H59.77a2.36,2.36,0,0,1,2,3c-.38,1.85-1.88,8.7-1.88,8.7a4,4,0,0,1-3.56,3.23h-12c-1.84,0-2.47-1.74-2-3.81l2-8.93C44.71,38.22,45.82,37.57,47.51,37.57Zm4.05,2.9c-.6,0-.9.22-1.09,1.11L49,48.46c-.09.62.23,1.11.73,1.11h2.65a1.07,1.07,0,0,0,1-.88l1.48-7c.22-.8-.05-1.2-.88-1.19Zm-4.05-2.9H59.77a2.36,2.36,0,0,1,2,3" transform="translate(-23.61 -22.47)" style="fill:#fff"/><path d="M66.84,37.57H78.78a2.3,2.3,0,0,1,2.35,3c-.43,2.07-1.5,7-1.88,8.7a4.16,4.16,0,0,1-3.56,3.23H64.31c-2.21,0-3.16-1-2.82-3,0,0,1.59-7.73,2-9.53A3.13,3.13,0,0,1,66.84,37.57Zm4.05,2.9c-.5,0-.92.31-1.08,1.11s-1.47,7.09-1.47,7.09c-.08.6-.16.9.55.9H72a.67.67,0,0,0,.74-.63l1.54-7.37c.22-.8.09-1.11-.91-1.08Zm10.24.13-1.88,8.7a4.16,4.16,0,0,1-3.56,3.23" transform="translate(-23.61 -22.47)" style="fill:#fff"/><path d="M86.56,37.62H96.89c1.32,0,2.31,1.65,2.06,3.15l-.35,1.93H92.75l.17-.77c.14-.79.19-1.38-.64-1.39H89.14c-.6,0-.83.13-1,1l-.44,2.31s3.35,0,6.22,0c3.12,0,4.26.66,3.89,2.38,0,0-.68,2.73-1,4s-1,2.41-2.79,2.41H80l1-4h9.79c.91,0,1-.45,1.17-1s.08-.84-.69-.84l-7.6,0c-1.71,0-2-.78-1.88-1.73,0,0,.51-4.16.86-5.6S84.85,37.62,86.56,37.62Z" transform="translate(-23.61 -22.47)" style="fill:#fff"/><path d="M116.84,37.66l-.83,3.8-5.14,0L108.53,52.6H102.3l2.38-11.16H99.52l.76-3.78Z" transform="translate(-23.61 -22.47)" style="fill:#fff"/><path d="M72.66,63.71l1.52-7,3.36,0-1.15,5.54c-.09.55,0,.71.91.71h2.81l-.35,1.58H73.16Q72.48,64.43,72.66,63.71Z" transform="translate(-23.61 -22.47)" style="fill:#fff"/><path d="M89.33,55.48l1.08,9.12-4,0-.19-1.36H82.71l-2.85,4.05-1.73,0,7.28-10.28Zm-3.55,3.39-2.43,3.45h2.83Z" transform="translate(-23.61 -22.47)" style="fill:#fff"/><path d="M98.94,56.62c1.86,0,1.93,1,1.8,1.61l-.34,1.71a1.31,1.31,0,0,1-.51.77.7.7,0,0,1,.19.76l-.39,1.89a1.58,1.58,0,0,1-1.55,1.22h-7.3l1.7-8Zm-4.21,4.64-.46,2.3h1.54c.52,0,.64-.33.73-.66l.22-1.2c.05-.26-.24-.45-.48-.45Zm.74-3.41L95,60.08h1.27a1.09,1.09,0,0,0,1.07-.88l.15-.77c.06-.33-.07-.58-.75-.58Z" transform="translate(-23.61 -22.47)" style="fill:#fff"/><path d="M103.48,56.7h5.67a1.3,1.3,0,0,1,1.23,1.66l-.17,1h-3.1l.09-.42c.08-.38-.06-.69-.36-.69l-1.41,0c-.47,0-.45.23-.53.53s-.24,1.18-.24,1.18c.62,0,3.14.08,3.14.08,1.49,0,2.16.42,2,1.24,0,0-.33,1.42-.53,2.1a1.78,1.78,0,0,1-1.72,1.18h-7.33l.65-2,5.3,0c.37,0,.5-.11.61-.5s0-.43-.36-.44c0,0-4,0-4.35,0s-1.07-.18-1-.71l.58-2.83A1.73,1.73,0,0,1,103.48,56.7Z" transform="translate(-23.61 -22.47)" style="fill:#fff"/></svg>