<svg width="220" height="81" viewBox="0 0 220 81" fill="none" xmlns="http://www.w3.org/2000/svg">
<g clip-path="url(#clip0)">
<path d="M159.644 66.8987C159.644 66.8987 193.938 88.6111 219.982 46.5164L210.582 34.9052C210.582 34.9052 203.806 76.2811 159.644 66.8987Z" fill="white"/>
<path d="M161.621 64.5441C161.621 64.5441 202.008 67.8333 205.603 18.4412L191.889 12.5278C191.889 12.5278 205.154 52.3039 161.621 64.5441Z" fill="white"/>
<path d="M163.814 61.5425C163.814 61.5425 200.876 44.9886 180.242 0L165.377 1.40196C165.377 1.40196 196.113 29.8905 163.814 61.5425Z" fill="white"/>
<path d="M27.8056 26.9428C29.338 26.9026 30.8638 27.159 32.299 27.6977C33.0288 28.0402 33.6223 28.6181 33.9841 29.3385C34.346 30.0589 34.4551 30.88 34.2941 31.6699L32.8203 38.3562C32.3851 39.4396 31.6335 40.3667 30.6634 41.0163C31.0912 41.2884 31.4223 41.6885 31.6095 42.1596C31.7967 42.6308 31.8304 43.1491 31.7059 43.6405L30.268 50.4886C29.8579 51.566 29.1363 52.4969 28.1952 53.1627C27.2541 53.8285 26.1361 54.199 24.9837 54.2271H0L5.80555 26.9248L27.8056 26.9428ZM13.2827 42.9395L11.701 50.6503H16.8774C18.8725 50.6503 19.268 49.7876 19.6274 48.3856L20.3464 44.7908C20.4065 44.5637 20.4141 44.3258 20.3685 44.0953C20.3229 43.8648 20.2253 43.6477 20.0832 43.4606C19.9411 43.2734 19.7582 43.1211 19.5485 43.0153C19.3387 42.9094 19.1075 42.8528 18.8725 42.8497L13.2827 42.9395ZM15.8709 30.8252L14.1814 38.8595H18.8725C19.5904 38.8864 20.2952 38.6625 20.8659 38.2263C21.4366 37.7901 21.8376 37.1687 22 36.4689L22.8268 32.6765C23.0605 31.4902 22.4853 30.8791 19.6454 30.8791L15.8709 30.8252Z" fill="white"/>
<path d="M42.9575 27.1405H64.9934C65.6065 27.2104 66.1969 27.4132 66.7235 27.7347C67.2501 28.0562 67.7003 28.4888 68.0425 29.0021C68.3848 29.5155 68.6109 30.0974 68.7052 30.7072C68.7994 31.3169 68.7595 31.9399 68.5882 32.5327C67.9052 35.8579 65.2091 48.1699 65.2091 48.1699C64.9158 49.7004 64.1332 51.094 62.9791 52.1411C61.8251 53.1882 60.3621 53.832 58.8104 53.9755H37.2418C33.9346 53.9755 32.8023 50.848 33.647 47.1275L37.2418 31.0768C37.9248 28.3088 39.9199 27.1405 42.9575 27.1405ZM50.2369 32.353C49.1585 32.353 48.6193 32.7484 48.2778 34.3481L45.6356 46.7141C45.4738 47.8284 46.049 48.7092 46.9477 48.7092H51.7108C52.1451 48.6875 52.5592 48.5194 52.8856 48.2321C53.212 47.9449 53.4315 47.5555 53.5082 47.1275L56.1683 34.5458C56.5637 33.1079 56.0784 32.3889 54.5866 32.4069L50.2369 32.353ZM42.9575 27.1405H64.9934C65.6065 27.2104 66.1969 27.4132 66.7235 27.7347C67.2501 28.0562 67.7003 28.4888 68.0425 29.0021C68.3848 29.5155 68.6109 30.0974 68.7052 30.7072C68.7994 31.3169 68.7595 31.9399 68.5882 32.5327" fill="white"/>
<path d="M77.701 27.1405H99.1618C99.8362 27.0932 100.512 27.212 101.13 27.4865C101.747 27.7611 102.288 28.1829 102.705 28.7151C103.122 29.2473 103.402 29.8736 103.521 30.5392C103.639 31.2047 103.593 31.8892 103.386 32.5327C102.613 36.2533 100.69 45.1144 100.007 48.1699C99.6719 49.6808 98.8767 51.0506 97.7306 52.0904C96.5845 53.1303 95.1441 53.7889 93.6079 53.9755H73.1536C69.1814 53.9755 67.4739 52.1781 68.085 48.5833C68.085 48.5833 70.9428 34.6895 71.6797 31.4542C71.9911 30.1281 72.7729 28.96 73.8803 28.1666C74.9876 27.3733 76.3452 27.0087 77.701 27.1405ZM84.9804 32.3529C84.0817 32.3529 83.3268 32.9101 83.0392 34.348C82.7516 35.7859 80.3971 47.0915 80.3971 47.0915C80.2533 48.1699 80.1095 48.7091 81.3856 48.7091H86.9755C87.138 48.7264 87.3023 48.7105 87.4585 48.6623C87.6146 48.6141 87.7593 48.5346 87.8837 48.4286C88.0082 48.3227 88.1097 48.1925 88.1822 48.0461C88.2548 47.8996 88.2967 47.74 88.3056 47.5768L91.0735 34.3301C91.469 32.8921 91.2353 32.335 89.4379 32.3889L84.9804 32.3529ZM103.386 32.5866L100.007 48.2238C99.6719 49.7347 98.8767 51.1045 97.7306 52.1444C96.5845 53.1842 95.1441 53.8428 93.6079 54.0294" fill="white"/>
<path d="M113.145 27.2304H131.712C134.085 27.2304 135.864 30.1961 135.415 32.8921L134.786 36.3611H124.271L124.577 34.9771C124.828 33.5572 124.918 32.4967 123.427 32.4787H117.783C116.704 32.4787 116.291 32.7124 115.985 34.2761L115.194 38.4281C115.194 38.4281 121.216 38.4281 126.374 38.4281C131.982 38.4281 134.031 39.6144 133.366 42.7059C133.366 42.7059 132.144 47.6127 131.569 49.8954C130.993 52.1781 129.771 54.2271 126.554 54.2271H101.355L103.152 47.0376H120.748C122.384 47.0376 122.546 46.2287 122.851 45.2402C123.157 44.2516 122.995 43.7304 121.611 43.7304H107.951C104.877 43.7304 104.356 42.3284 104.572 40.6209C104.572 40.6209 105.489 33.1438 106.118 30.5555C106.747 27.9673 110.072 27.2304 113.145 27.2304Z" fill="white"/>
<path d="M167.57 27.3023L166.078 34.1323H156.84L152.634 54.1552H141.436L145.714 34.0964H136.44L137.806 27.3023H167.57Z" fill="white"/>
<path d="M88.1618 74.1242L90.8938 61.5425H96.933L94.866 71.5C94.7042 72.4886 94.866 72.7761 96.5016 72.7761H101.552L100.923 75.616H89.0605C88.2456 75.4842 87.9461 74.9869 88.1618 74.1242Z" fill="white"/>
<path d="M118.124 59.3317L120.065 75.7238H112.876L112.534 73.2794H106.225L101.103 80.5588H97.9935L111.078 62.0817L118.124 59.3317ZM111.743 65.4248L107.376 71.6258H112.462L111.743 65.4248Z" fill="white"/>
<path d="M135.397 61.3807C138.74 61.3807 138.866 63.1781 138.632 64.2745L138.021 67.348C137.894 67.9053 137.568 68.3973 137.105 68.732C137.291 68.8997 137.423 69.1194 137.484 69.3628C137.545 69.6062 137.532 69.8622 137.446 70.098L136.745 73.4951C136.598 74.1224 136.243 74.6812 135.736 75.0796C135.23 75.4781 134.603 75.6926 133.959 75.6879H120.838L123.894 61.3088L135.397 61.3807ZM127.83 69.7206L127.003 73.8546H129.771C130.706 73.8546 130.922 73.2614 131.083 72.6683L131.479 70.5114C131.569 70.0441 131.047 69.7026 130.616 69.7026L127.83 69.7206ZM129.16 63.5915L128.315 67.5997H130.598C131.052 67.5998 131.492 67.4422 131.843 67.1537C132.194 66.8651 132.434 66.4637 132.521 66.018L132.791 64.634C132.899 64.0408 132.665 63.5915 131.443 63.5915H129.16Z" fill="white"/>
<path d="M143.557 61.5245H153.748C154.108 61.5298 154.461 61.6178 154.78 61.7817C155.1 61.9457 155.378 62.1811 155.591 62.4698C155.805 62.7584 155.95 63.0925 156.013 63.446C156.077 63.7995 156.059 64.163 155.959 64.5081L155.654 66.3055H150.082L150.243 65.5506C150.387 64.8676 150.136 64.3104 149.596 64.3104H147.062C146.217 64.3104 146.253 64.7238 146.109 65.263C145.966 65.8023 145.678 67.384 145.678 67.384C146.792 67.384 151.322 67.5278 151.322 67.5278C154 67.5278 155.204 68.2827 154.917 69.7565C154.917 69.7565 154.324 72.3088 153.964 73.531C153.737 74.1648 153.317 74.711 152.761 75.0918C152.206 75.4725 151.545 75.6686 150.873 75.6519H137.698L138.866 72.0572H148.392C149.057 72.0572 149.291 71.8595 149.489 71.1585C149.686 70.4575 149.489 70.3856 148.841 70.3676C148.841 70.3676 141.652 70.3676 141.023 70.3676C140.394 70.3676 139.1 70.0441 139.225 69.0915L140.268 64.0049C140.419 63.2613 140.837 62.5987 141.443 62.1418C142.049 61.685 142.801 61.4654 143.557 61.5245Z" fill="white"/>
</g>
<defs>
<clipPath id="clip0">
<rect width="220" height="80.6667" fill="white"/>
</clipPath>
</defs>
</svg>
